# xmcd
#
# Track frame offsets:
#	150
#	15022
#	30377
#	39410
#	53845
#	62722
#	86112
#	97210
#	108092
#	118410
#	127975
#	137427
#	146957
#	158627
#
# Disc length: 2277 seconds
#
# Revision: 2
# Processed by: cddbd v1.5.2PL0 Copyright (c) Steve Scherf et al.
# Submitted via: dBpowerAMP V4.0
#
DISCID=b508e30e
DTITLE=The Johnson Mountain Boys - Blue Diamond
DYEAR=1993
DGENRE=Bluegrass
TTITLE0=Duncan and Brady
TTITLE1=My Better Years
TTITLE2=It Don't Bring You Back To Me
TTITLE3=Christine LeRoy
TTITLE4=See God's Ark A Movin'
TTITLE5=Blue Diamond Mines
TTITLE6=Teardrops Fell Like Raindrops
TTITLE7=Our Last Goodbye
TTITLE8=The Future Remains
TTITLE9=You Done Me Wrong
TTITLE10=Roll On Blues
TTITLE11=There Goes My Love
TTITLE12=Only A Hobo
TTITLE13=Harbor Of Love
EXTD=
EXTT0=
EXTT1=
EXTT2=
EXTT3=
EXTT4=
EXTT5=
EXTT6=
EXTT7=
EXTT8=
EXTT9=
EXTT10=
EXTT11=
EXTT12=
EXTT13=
PLAYORDER=
